# xmcd
#
# Track frame offsets:
#	150
#	21212
#	43231
#	58949
#	98915
#	116975
#	130891
#	181306
#	198033
#	212850
#	265850
#	302404
#
# Disc length: 4772 seconds
#
# Revision: 1
# Processed by: cddbd v1.5.2PL0 Copyright (c) Steve Scherf et al.
# Submitted via: EZCDAudioConverter 1.3.4.1
#
DISCID=ae12a20c
DTITLE=Touch - Touch (1969)
DYEAR=1969
DGENRE=
TTITLE0=We Feel Fine
TTITLE1=Friendly Birds
TTITLE2=Miss Teach
TTITLE3=The Spiritual Death Of Howard Greer
TTITLE4=Down At Circe's Place
TTITLE5=Alesha And Others
TTITLE6=Seventy Five
TTITLE7=We Finally Met Today [Unreleased Single, 1968]
TTITLE8=Alesha And Others [Live Studio Demo, 1968]
TTITLE9=Blue Feeling
TTITLE10=The Spiritual Death Of Howard Greer [Live Studio Demo, 1968]
TTITLE11=The Second Coming Of Suzanne [Film Music, 1973]
EXTD=
EXTT0=
EXTT1=
EXTT2=
EXTT3=
EXTT4=
EXTT5=
EXTT6=
EXTT7=
EXTT8=
EXTT9=
EXTT10=
EXTT11=
PLAYORDER=
